<svg width="50" height="50" viewBox="0 0 50 50" fill="none" xmlns="http://www.w3.org/2000/svg">
<path d="M8.33337 39.5833V35.4167H12.5V20.8333C12.5 17.9514 13.3681 15.3906 15.1042 13.151C16.8403 10.9115 19.0973 9.44444 21.875 8.75V7.29167C21.875 6.42361 22.1789 5.68576 22.7865 5.07812C23.3941 4.47049 24.132 4.16667 25 4.16667C25.8681 4.16667 26.6059 4.47049 27.2136 5.07812C27.8212 5.68576 28.125 6.42361 28.125 7.29167V8.75C30.9028 9.44444 33.1598 10.9115 34.8959 13.151C36.632 15.3906 37.5 17.9514 37.5 20.8333V35.4167H41.6667V39.5833H8.33337ZM25 45.8333C23.8542 45.8333 22.8733 45.4253 22.0573 44.6094C21.2414 43.7934 20.8334 42.8125 20.8334 41.6667H29.1667C29.1667 42.8125 28.7587 43.7934 27.9427 44.6094C27.1268 45.4253 26.1459 45.8333 25 45.8333ZM16.6667 35.4167H33.3334V20.8333C33.3334 18.5417 32.5174 16.5799 30.8855 14.9479C29.2535 13.316 27.2917 12.5 25 12.5C22.7084 12.5 20.7466 13.316 19.1146 14.9479C17.4827 16.5799 16.6667 18.5417 16.6667 20.8333V35.4167Z" fill="#EEEEEE"/>
</svg>
